<?xml version="1.0" encoding="UTF-8"?>
<svg id="Livello_1" data-name="Livello 1" xmlns="http://www.w3.org/2000/svg" viewBox="0 0 265.47 104.12">
  <defs>
    <style>
      .cls-1 {
        fill: #007ac0;
      }
    </style>
  </defs>
  <path class="cls-1" d="M78.55,16.36c-.09,0-.12.13-.05.18,4.26,2.74,3.82,5.21,11.68,10.98.03.02.08,0,.07-.04-1.8-6.12-5.99-10.93-11.7-11.11ZM89.49,19.23c-.06-.05-.14.03-.1.1,1.42,2.29,1.9,4.75,2.47,7.31l1.26,6.04s-.05.07-.07.03c-1.11-1.85-6.29-4.41-9.69-7.07-.05-.04-.13.01-.11.08,1.92,5.61,8.12,8.01,11.92,12.13.04.04.12.01.12-.05-.28-6.06.66-13.45-5.8-18.57ZM100.55,38.74c-.14-3.95-1-7.6-3.53-10.72-.05-.07-.16,0-.14.08,1.68,6.15-.11,11.53.57,16.16,0,.07-.07.08-.09.02-1.7-4.13-6.34-6.16-8.4-9.02-.05-.07-.16-.02-.14.07,1.91,8.17,8.01,10.77,9.22,15.08.02.08.12.08.14,0,.84-3.29,2.55-6.83,2.38-11.68ZM102.72,43.22c-.03-.09-.16-.06-.16.03-.15,6.03-3.69,10.69-4.4,14.86,0,.05-.07.04-.07,0-.13-5.39-4.02-8.64-6.2-12.73-.04-.08-.16-.05-.16.04-.33,7.8,5.31,12.66,5.12,19.16,0,.08.1.12.15.06,4.44-6.14,8.62-13.57,5.72-21.41ZM104.11,59.34c0-.09-.13-.11-.17-.03-2.72,5.5-5.98,6.75-10.09,12.76-.03.04-.08.01-.07-.03,1.61-4.85-1.05-11.26-1.15-15.56,0-.09-.13-.11-.16-.02-3.25,7.87.17,15.97-2.68,21.28-.03.06.02.13.09.1,4.06-2.02,7.9-5.05,10.89-8.88,1.87-2.83,3.52-5.88,3.35-9.61ZM100.06,73.97c-2.84,3.96-9.24,5.44-15.45,10.33-.04.03-.09-.01-.05-.06,3.15-4.19,2.81-9.91,3.96-14.95.01-.07-.07-.11-.12-.06-6.02,6.84-5.27,14.31-7.93,17.81-.03.04,0,.11.05.11,9.12-.01,18.97-8.01,19.67-13.14,0-.07-.08-.1-.12-.04ZM91.38,87.64c-8.02,3.63-11.24,1.58-18.89,3.05-.05.01-.07-.05-.03-.08,5.34-2.87,6.34-7.54,8.19-10.58.04-.06-.03-.13-.09-.1-5.87,2.86-7.79,9.45-14.83,11.15-.07.01-.07.11,0,.13,2.96.69,5.2,1.99,8.28,2.25,8.57.72,14.83-1.89,17.46-5.72.04-.06-.03-.14-.1-.11ZM25.57,16.36c-5.71.18-9.9,4.99-11.7,11.11,0,.03.04.06.07.04,7.86-5.76,7.42-8.23,11.68-10.98.08-.05.04-.18-.05-.18ZM20.77,25.63c-3.39,2.66-8.57,5.22-9.69,7.07-.02.04-.08,0-.07-.03l1.26-6.04c.56-2.56,1.05-5.02,2.47-7.31.04-.07-.04-.15-.1-.1-6.46,5.11-5.51,12.51-5.8,18.57,0,.06.07.09.12.05,3.8-4.12,10-6.52,11.92-12.13.02-.07-.05-.13-.11-.08ZM15.17,35.26c-2.06,2.86-6.7,4.89-8.4,9.02-.02.06-.1.04-.09-.02.67-4.63-1.11-10.01.56-16.16.02-.09-.09-.15-.14-.08-2.54,3.12-3.39,6.77-3.53,10.72-.17,4.85,1.53,8.39,2.38,11.68.02.08.12.07.14,0,1.21-4.31,7.31-6.91,9.22-15.08.02-.09-.09-.14-.14-.07ZM12.4,45.4c0-.09-.12-.12-.16-.04-2.18,4.08-6.07,7.33-6.2,12.73,0,.05-.06.06-.07,0-.71-4.16-4.24-8.83-4.4-14.86,0-.09-.13-.12-.16-.03-2.91,7.84,1.27,15.27,5.72,21.41.05.06.14.02.14-.06-.18-6.51,5.46-11.36,5.13-19.16ZM14.34,77.74c-2.86-5.31.56-13.41-2.69-21.28-.03-.08-.16-.06-.16.02-.1,4.3-2.77,10.72-1.15,15.56.02.04-.04.07-.06.03-4.11-6.01-7.37-7.26-10.09-12.76-.04-.08-.16-.06-.17.03-.17,3.74,1.48,6.78,3.35,9.61,2.98,3.83,6.83,6.86,10.89,8.88.06.03.12-.03.09-.1ZM23.67,87.04c-2.67-3.5-1.91-10.97-7.94-17.81-.05-.05-.13,0-.12.06,1.15,5.04.81,10.76,3.96,14.95.03.04-.01.09-.06.06-6.22-4.89-12.61-6.37-15.45-10.33-.04-.05-.13-.02-.12.04.7,5.13,10.56,13.12,19.68,13.14.05,0,.09-.06.05-.11ZM38.39,91.08c-7.03-1.7-8.95-8.29-14.83-11.15-.06-.03-.13.04-.09.1,1.85,3.05,2.85,7.71,8.19,10.58.04.02.02.09-.03.08-7.65-1.47-10.87.58-18.89-3.05-.07-.03-.14.04-.1.11,2.64,3.83,8.89,6.44,17.46,5.72,3.08-.26,5.32-1.56,8.28-2.25.07-.02.07-.12,0-.13ZM82.71,95.72c-2.76,1.09-6.35,1.18-9.29.4-6.72-2.09-14.19-6.06-21.36-2.77-7.17-3.29-14.63.67-21.36,2.77-2.94.78-6.53.69-9.29-.4-.08-.03-.14.07-.07.12,3.97,3.07,9.52,4.48,14.53,2.67,4.81-1.5,8.87-6.59,14.56-4.42-4.51,1.76-8.72,5.01-11.97,8.08l2.37,1.94c2.95-3.44,6.28-6.88,10.04-8.97.52-.3.82-.42,1.19-.44.36.02.67.14,1.18.44,3.77,2.09,7.1,5.53,10.05,8.97l2.37-1.94c-3.25-3.07-7.47-6.32-11.97-8.08,5.69-2.17,9.76,2.92,14.56,4.42,5,1.81,10.56.4,14.53-2.67.06-.05,0-.15-.07-.12ZM55.24,77.04h-10.92c-.74,0-1.41-.06-2.03-.17,0,0,0,0,0,0,1.79,2.66,4.6,4.68,7.45,6.04.44,2.43.99,4.68,1.19,4.86.2.18,3-.63,3.08-.89.08-.26-1.14-4.42-1.14-4.42,1.47-2.52,1.92-4.01,2.36-5.42ZM74.27,20.4c-.27-.2-1.15,1.98-2.18,2.54-.19.1-.38.29-.51.54-.13.26-.18.53-.14.76.02.23.13.42.3.52.17.1.38.1.58,0,.2-.1.38-.29.52-.55.13-.25.17-.53.14-.76-.08-1.23,1.49-2.94,1.3-3.06ZM75.07,23.51c-.16-.17-1.5,2.06-2.71,1.8-.23-.06-.49-.05-.73.07-.12.05-.22.13-.31.21,0-.05.01-.11.01-.17-.03-.28-.14-.55-.31-.72-.81-1,.32-3.35.1-3.43-.22-.06-.61,2.42-1.28,3.49-.13.2-.2.47-.17.76.02.29.14.55.31.73.17.18.39.28.62.26.17,0,.32-.1.45-.22,0,.1.02.2.07.31.11.22.29.38.53.44.23.07.5.05.74-.06.25-.12.42-.32.52-.54.53-1.18,2.34-2.77,2.18-2.94ZM74.61,26.23c-.15-.21-2.01,1.96-3.28,1.42-.24-.12-.54-.16-.83-.08-.16.05-.3.14-.43.24,0-.09,0-.17-.02-.24-.08-.32-.25-.57-.47-.73-1.06-.93-.23-3.75-.48-3.78-.26-.03-.25,2.78-.8,4.09-.12.24-.15.55-.07.86.08.31.25.57.47.74.22.16.47.23.72.17.11-.03.21-.09.29-.15,0,.01,0,.03,0,.05.08.27.26.48.5.6.24.11.53.15.82.07.29-.08.53-.26.67-.48.79-1.18,3.05-2.55,2.9-2.78ZM70.12,30.2c-.25-.12-.57-.15-.89-.07-.24.06-.43.18-.6.31.02-.2.02-.41-.03-.63-.08-.35-.25-.64-.46-.82-1.05-1.05-.33-4.21-.57-4.25-.24-.03-.15,3.11-.65,4.59-.1.27-.12.62-.03.97.09.35.26.64.48.83.21.18.46.26.69.19.06,0,.13-.04.18-.08,0,.04,0,.08,0,.12.05.26.24.46.49.58.26.12.57.15.9.07.33-.08.61-.26.79-.48.99-1.15,3.31-2.78,3.17-3-.14-.21-2.1,2.2-3.45,1.68ZM57.88,36.63c1.2-1.96,2.97-3.46,4.47-5.28.05-.07.05-.18-.01-.23-.06-.06-.15-.06-.22,0-.34.37-.7.71-1.07,1.05-.16-.08-.56.08-.97.4-.32.25-.55.54-.64.74-.21-.05-.6.2-.95.64-.29.38-.46.77-.45,1.02-.22.02-.54.3-.82.75-.18.3-.29.59-.33.82-.18.12-.38.35-.57.65-.25.41-.37.82-.33,1.06-.06.1-.12.2-.16.3,0-.08.02-.16.03-.24.35-2.78.86-5.53,1.64-8.18.78-2.65,1.72-5.31,3.32-7.46h0c.08-.13.07-.29-.03-.4-.1-.11-.27-.12-.38,0-.55.59-1.02,1.25-1.44,1.93-.18-.1-.57.26-.86.83-.27.51-.37.99-.27,1.17,0,0,0,.01-.01,0-.19-.08-.55.35-.77.92-.21.54-.25,1.04-.11,1.21,0,0,0,.01-.01.02-.22-.08-.57.41-.79,1.11-.18.59-.2,1.1-.07,1.31,0,0,0,.03,0,.03-.22-.08-.56.43-.76,1.12-.2.67-.18,1.26,0,1.38-.22-.02-.52.48-.68,1.17-.14.6-.13,1.11,0,1.31-.21.06-.45.56-.57,1.21-.12.63-.06,1.15.1,1.32-.2.1-.4.61-.47,1.25-.07.63.02,1.15.18,1.31-.16.19-.32.62-.39,1.15-.07.5-.02.94.07,1.18-.18.15-.31.66-.32,1.27-.01.49.06.9.18,1.14-.1.24-.16.6-.16,1,0,.51.07.95.2,1.18-.04,1.8-.01,3.72.08,5.52h3.89c.03-1.41.12-2.94.26-4.33.27-2.48.68-5,1.92-7.12h0c.04-.09.03-.18-.02-.25-.07-.06-.17-.06-.24.01-1.68,1.95-2.42,4.6-2.85,7.14-.08.5-.14,1-.2,1.5.11-2.04.29-4.07.76-6,.54-2.35,1.61-4.59,3.64-5.85.06-.04.1-.12.07-.2-.02-.09-.12-.15-.2-.12-.13.04-.25.11-.38.16-.13-.17-.63-.04-1.14.28-.49.32-.81.71-.78.92,0,0-.02.02-.02,0,0-.02,0-.05-.02-.06-.18-.15-.67.19-1.09.77-.42.58-.58,1.19-.4,1.34,0,0,0,.02,0,.02-.22-.09-.58.41-.8,1.09-.16.48-.2.93-.14,1.18,0,0,0,.02,0,.02-.17.56-.31,1.12-.44,1.69.05-.81.12-1.62.24-2.42.34-2.3,1.04-4.56,2.27-6.48ZM67.71,47.73c-.09-.14-.31-.17-.42-.05-2.17,2.29-3.49,4.73-3.94,5.64h1.29c.65-1.52,2.1-4.2,3.04-5.16h0c.1-.12.12-.3.02-.42ZM65.93,86.11v-.02c-.41-1.12-.96-2.12-1.4-3.19-.47-1.07-.92-2.13-1.3-3.23-.31-.82-.65-1.77-.9-2.63h-1.2c.34,1,.78,2.08,1.19,3.05.9,2.18,1.94,4.32,3.27,6.23.05.07.14.1.23.06.11-.04.15-.16.12-.27ZM65.51,81.41c-.33-1.34-.68-2.98-.98-4.37h-1.24c.48,1.48,1.13,3.14,1.71,4.55.06.14.19.2.31.17.15-.04.23-.2.19-.36ZM62.22,85.04l-1.91-8h-3.26c.52,2.03,1.25,4.09,2.21,5.9.06.11.18.17.29.15.15-.02.27-.18.25-.35-.22-1.69-.49-3.33-.74-4.96.69,2.56,1.62,5.07,2.87,7.37.03.07.11.11.17.08.09-.02.14-.12.12-.2ZM79.23,33.19c-1.2-.31-8.83-1.66-17.39,14.07,1.25-5.86,5.04-12.95,6.08-15.01h0c.06-.13.03-.28-.08-.37-.11-.08-.27-.05-.35.06-5.65,9.43-7.64,14.86-8.81,21.36h3.54c.6-6.27,8.52-21.03,16.95-19.93h0s.09-.03.1-.07c.02-.05-.01-.11-.06-.12ZM48.31,25.19c-.05-.08-.15-.12-.25-.09-.12.04-.19.17-.15.28,2.21,5.94-.61,8.87-1.79,13.03-1.42-3.38,3.28-6.56.86-12.73-.03-.08-.1-.14-.18-.16-.12-.01-.24.03-.26.2-.06.43-.35,3.85-3.12,5.85-.28-.65-.7-1.34-1.29-1.87-.26-1.15-1.01-2.73-2.59-3.2-.24-.6-.71-1.45-1.63-1.91-.86-.43-1.86-.39-2.97.11-1.34.16-2.26.68-2.75,1.55-.46.82-.38,1.72-.22,2.33-1.13,1.21-1.18,2.99-1.15,3.69-.67,1.61-.29,3.49-.08,4.27-.8,2.19-.02,4.31.29,5.01,0,.19,0,.37.02.55-2.62-2.87-8.59-6.42-10.87-7.78-.11-.06-.24-.05-.33.04-.12.11-.12.28-.01.4,5.09,4.96,9.62,11.08,13.98,23.78,2.17-2.26,6.1-5.23,11.69-5.23h6.54c-4.15-15.48,1.89-21.02-3.74-28.12ZM44.56,37.43c.55.68.35,1.88-.62,1.94-.51.03-1.17-.03-1.51-.44-.55-.66-.34-1.91.63-1.94.51-.02,1.16.03,1.5.45ZM43.18,33.72c.88.36,1.18,1.4.56,1.98-.33.3-.94.24-1.35.16-.82-.16-1.35-1.39-.64-1.98.37-.3,1.03-.33,1.43-.17ZM39.55,37.14c.71-.07,1.46-.24,1.89.51.46.79.12,1.89-.81,2.07-.61.13-1.34.19-1.78-.35-.57-.71-.34-2.13.69-2.23ZM37.95,35.18c-.45-1.54,2.16-2.23,2.56-.7.4,1.55-2.22,2.24-2.56.7ZM41.45,30.77c.73,0,1.09,1.07.67,1.6-.26.32-.81.34-1.18.28-.69-.11-1.14-1-.67-1.61.28-.37.77-.28,1.18-.28ZM39.52,27.97c.4-.11.82-.07,1.12.26.46.5.3,1.35-.38,1.47-.32.06-.82.03-1.07-.19-.45-.4-.43-1.34.33-1.55ZM39.4,31.55c.45,1.34-1.81,2.05-2.23.73-.42-1.35,1.86-2.06,2.23-.73ZM36.2,29.4c-.35-1.17,1.56-1.77,1.93-.63.38,1.17-1.6,1.79-1.93.63ZM36.19,35.43c-.54.13-1.1.34-1.55-.12-.57-.59-.41-1.63.37-1.91.5-.19,1.14-.3,1.55.12.53.54.47,1.71-.36,1.91ZM36.54,25.55c.38-.15.87-.32,1.3,0,.53.4.41,1.29-.19,1.57-.4.18-.91.3-1.27-.01-.45-.41-.48-1.29.16-1.55ZM36.29,31.31c.43,1.18-1.57,1.85-1.96.68-.4-1.18,1.61-1.85,1.96-.68ZM33.32,29.4c-.29-1.09,1.55-1.61,1.85-.5.33,1.08-1.55,1.62-1.85.5ZM33.61,26.08c.37-.2.89-.28,1.22.09.39.43.26,1.09-.25,1.35-.39.2-.92.27-1.22-.09-.34-.39-.27-1.06.25-1.34ZM31.98,30.45c.29-.2.68-.38,1.02-.24.61.25.59,1.14.1,1.5-.23.16-.64.36-.91.29-.62-.16-.77-1.16-.21-1.55ZM31.89,33.51c.36-.32.77-.49,1.2-.28.68.33.7,1.35.11,1.75-.27.19-.73.41-1.06.33-.73-.19-.87-1.25-.24-1.8ZM33.93,36.85c.81,1.43-1.62,3.03-2.31,1.49-.62-1.33,1.54-2.87,2.31-1.49ZM31.79,41.73c-.7-1.54,1.85-3.22,2.62-1.55.71,1.53-1.84,3.24-2.62,1.55ZM34.47,45.2c-.15.09-.2.13-.25.13l-1.41-1.54s.45-.36.6-.44c1.18-.65,2.14,1.22,1.07,1.85ZM34.77,38.09c-.52-1.74,2.46-2.51,2.91-.8.47,1.77-2.51,2.53-2.91.8ZM35.22,41.78c-.54-1.87,2.63-2.69,3.11-.85.5,1.9-2.68,2.7-3.11.85ZM35.68,45.54c-.53-1.88,2.62-2.7,3.11-.85.5,1.89-2.68,2.7-3.11.85ZM39.36,49.03c-.19.68-.75.78-1.34.92-.39-.47-1.42-1.67-1.44-1.81,0-.05,0-.1.02-.17.05-.14.21-.28.33-.36.35-.23,1.1-.4,1.51-.32.73.16,1.11,1.04.92,1.73ZM40.05,40.86c.74-.18,1.51-.45,2.08.27.59.76.4,1.99-.56,2.31-.64.21-1.4.4-1.94-.12-.71-.67-.66-2.21.43-2.46ZM40.74,44.64c.7-.17,1.43-.43,1.97.26.57.73.38,1.89-.54,2.2-.6.2-1.33.38-1.85-.11-.67-.64-.63-2.11.41-2.35ZM43.61,50.37c-.06.34-.52.39-.83.48-.91.27-1.77.16-2.05-.93-.3-1.17.58-1.65,1.52-1.88.52-.12.99-.02,1.34.41.09.11.19.21.22.31,0,0-.14,1.29-.2,1.61ZM44.3,45.42l-.07.45c-.48-.3-.77-1-.54-1.54.18-.41.62-.52.94-.54-.12.54-.23,1.08-.34,1.63ZM45.2,41.41c-.05.17-.39,1.5-.39,1.5-.1.05-.5-.03-.61-.04-.78-.07-1.47-.75-1.17-1.55.24-.66.74-.73,1.37-.76.26-.01.73.05.97.21,0,0-.09.3-.18.64ZM77.69,39.08c-.19-.28-1.76,1.44-2.92,1.61-.22.03-.46.14-.66.33-.22.2-.36.43-.4.66-.05.22-.02.44.1.6.13.16.33.22.55.2s.45-.13.67-.33c.2-.19.34-.43.4-.65.35-1.18,2.41-2.23,2.27-2.41ZM74.21,43c-.19-.14-.44-.22-.71-.19-.13,0-.25.04-.36.09.02-.05.05-.1.07-.15.07-.28.05-.56-.04-.79-.42-1.22,1.46-3.03,1.27-3.17-.18-.14-1.4,2.05-2.41,2.82-.19.14-.35.37-.42.65-.08.27-.06.56.04.79.1.23.27.4.49.47.17.05.34.02.5-.05-.03.09-.05.2-.04.31.02.25.14.46.34.61.19.15.44.22.71.2.27-.03.51-.15.67-.32.9-.91,3.15-1.77,3.06-1.99-.1-.22-2.12,1.41-3.16.73ZM72.44,44.82c-.18-.2-.44-.34-.75-.37-.17,0-.33.02-.49.08.02-.08.06-.16.07-.24.03-.32-.04-.62-.19-.85-.67-1.24,1.08-3.59.85-3.71s-1.19,2.51-2.16,3.55c-.19.19-.33.46-.36.78-.03.32.04.62.18.85.15.22.37.39.62.42.11,0,.23,0,.33-.04,0,.01-.02.03-.01.05-.02.27.08.54.26.73.18.2.45.33.74.36.3.03.58-.05.8-.21,1.14-.82,3.74-1.31,3.67-1.57-.06-.25-2.55,1.12-3.56.17ZM70.42,46.8c-.19-.2-.48-.34-.81-.38-.25-.03-.47,0-.67.08.09-.18.16-.38.19-.61.05-.36-.02-.69-.15-.94-.62-1.35,1.15-4.06.93-4.18-.21-.12-1.21,2.86-2.19,4.07-.19.22-.32.54-.37.9-.03.36.02.69.16.94.13.24.34.41.58.43.07,0,.13,0,.2,0-.01.03-.03.07-.03.11-.04.26.06.51.26.71.19.2.48.34.81.38.34.04.66-.02.91-.17,1.32-.72,4.06-1.43,4-1.69-.05-.25-2.72,1.31-3.81.35ZM42.98,58.96c-4.99,0-9.12,2.18-10.09,2.72-.05.03-.11-.03-.07-.08.81-1.19,5.18-7.05,12.69-7.05h19.13c1.03,0,1.87.99,1.87,2.2s-.84,2.2-1.87,2.2h-21.66ZM44.33,75.83c-6.2,0-6.69-4.57-15.88-5.6-.06,0-.07-.1,0-.12,7.55-1.89,10.35,1.31,14.76,1.31h21.44c1.03,0,1.87.99,1.87,2.2s-.84,2.2-1.87,2.2h-20.31ZM43.9,70.25c-6.04,0-7.8-3.43-16.94-1.17-.06.02-.11-.07-.05-.11,5.09-3.5,10.64-3.18,12.88-3.18h24.85c1.03,0,1.87.99,1.87,2.2s-.84,2.2-1.87,2.2c0,0-15.96.04-20.74.04ZM39.28,64.59c-5.6,0-9.2,1.33-10.18,1.74-.06.02-.1-.06-.06-.1,6.16-6.4,13.37-6.05,15.1-6.05h20.5c1.03,0,1.87.99,1.87,2.2s-.84,2.2-1.87,2.2h-25.36ZM46.76,14.42h-3.48l-1.95-7.58c-.07-.27-.2-.83-.37-1.67-.17-.85-.27-1.41-.3-1.7-.04.36-.14.93-.3,1.71-.16.79-.28,1.35-.37,1.68l-1.94,7.56h-3.47L30.9,0h3.01l1.84,7.87c.32,1.45.56,2.71.7,3.78.04-.37.13-.96.27-1.74.14-.79.27-1.4.4-1.83l2.1-8.08h2.89l2.1,8.08c.09.36.21.91.35,1.66.14.74.24,1.38.32,1.91.07-.51.17-1.15.32-1.92.15-.76.28-1.38.4-1.86l1.83-7.87h3.01l-3.67,14.42ZM55.07,14.42h-3.01V0h8.27v2.51h-5.26v3.72h4.89v2.5h-4.89v5.7ZM72.59,4.5c0,1.55-.49,2.74-1.46,3.56-.97.82-2.35,1.23-4.14,1.23h-1.31v5.13h-3.06V0h4.61c1.75,0,3.08.38,3.99,1.13.91.75,1.37,1.87,1.37,3.37ZM65.68,6.79h1.01c.94,0,1.64-.19,2.11-.56.47-.37.7-.91.7-1.62s-.2-1.25-.59-1.59c-.39-.34-1-.51-1.84-.51h-1.39v4.28Z"/>
  <g>
    <path class="cls-1" d="M130.54,52.27h-4.13l-2.32-8.99c-.09-.32-.23-.98-.44-1.98-.21-1-.33-1.68-.36-2.02-.05.42-.16,1.1-.35,2.03-.19.93-.33,1.6-.43,2l-2.31,8.97h-4.12l-4.37-17.12h3.57l2.19,9.34c.38,1.73.66,3.22.83,4.48.05-.44.15-1.13.32-2.07s.33-1.66.47-2.17l2.49-9.59h3.43l2.49,9.59c.11.43.25,1.09.41,1.97.16.88.29,1.64.37,2.27.08-.61.2-1.37.37-2.28.17-.91.33-1.64.47-2.21l2.18-9.34h3.57l-4.36,17.12Z"/>
    <path class="cls-1" d="M148.3,45.7c0,2.13-.56,3.8-1.69,5-1.12,1.2-2.69,1.8-4.69,1.8-1.26,0-2.36-.27-3.33-.83-.96-.55-1.7-1.34-2.21-2.37-.52-1.03-.77-2.23-.77-3.61,0-2.14.56-3.8,1.67-4.99,1.12-1.19,2.68-1.78,4.71-1.78,1.26,0,2.36.27,3.33.82.96.55,1.7,1.33,2.21,2.35.52,1.02.77,2.22.77,3.59ZM139.25,45.7c0,1.29.21,2.27.64,2.94.43.66,1.12,1,2.08,1s1.64-.33,2.05-.99c.42-.66.63-1.64.63-2.94s-.21-2.27-.63-2.92c-.42-.65-1.11-.97-2.07-.97s-1.64.32-2.06.96-.63,1.62-.63,2.92Z"/>
    <path class="cls-1" d="M158.2,38.94c.48,0,.89.03,1.21.1l-.27,3.35c-.29-.08-.64-.12-1.05-.12-1.14,0-2.03.29-2.66.88-.64.58-.95,1.4-.95,2.46v6.66h-3.57v-13.09h2.7l.53,2.2h.18c.41-.73.95-1.33,1.64-1.77.69-.45,1.44-.67,2.25-.67Z"/>
    <path class="cls-1" d="M164.99,52.27h-3.57v-18.22h3.57v18.22Z"/>
    <path class="cls-1" d="M172.52,52.5c-1.54,0-2.75-.6-3.62-1.79-.88-1.19-1.32-2.85-1.32-4.96s.45-3.82,1.34-5.02c.89-1.2,2.12-1.8,3.69-1.8,1.65,0,2.9.64,3.77,1.92h.12c-.18-.98-.27-1.85-.27-2.61v-4.19h3.58v18.22h-2.74l-.69-1.7h-.15c-.81,1.29-2.05,1.93-3.71,1.93ZM173.78,49.66c.91,0,1.58-.27,2.01-.8.43-.53.66-1.43.7-2.7v-.39c0-1.4-.22-2.41-.65-3.02-.43-.61-1.14-.91-2.11-.91-.8,0-1.42.34-1.86,1.01-.44.68-.66,1.66-.66,2.95s.22,2.25.67,2.9,1.08.96,1.91.96Z"/>
    <path class="cls-1" d="M192.91,52.27h-3.57v-17.12h9.81v2.97h-6.24v4.41h5.81v2.96h-5.81v6.77Z"/>
    <path class="cls-1" d="M213.76,45.7c0,2.13-.56,3.8-1.69,5s-2.69,1.8-4.69,1.8c-1.26,0-2.36-.27-3.33-.83-.96-.55-1.7-1.34-2.21-2.37-.52-1.03-.77-2.23-.77-3.61,0-2.14.56-3.8,1.67-4.99,1.12-1.19,2.68-1.78,4.71-1.78,1.26,0,2.36.27,3.33.82.96.55,1.7,1.33,2.21,2.35.52,1.02.77,2.22.77,3.59ZM204.71,45.7c0,1.29.21,2.27.64,2.94.43.66,1.12,1,2.08,1s1.64-.33,2.05-.99c.42-.66.63-1.64.63-2.94s-.21-2.27-.63-2.92c-.42-.65-1.11-.97-2.07-.97s-1.64.32-2.06.96-.63,1.62-.63,2.92Z"/>
    <path class="cls-1" d="M228.24,45.7c0,2.13-.56,3.8-1.69,5s-2.69,1.8-4.69,1.8c-1.26,0-2.36-.27-3.33-.83-.96-.55-1.7-1.34-2.21-2.37-.52-1.03-.77-2.23-.77-3.61,0-2.14.56-3.8,1.67-4.99,1.12-1.19,2.68-1.78,4.71-1.78,1.26,0,2.36.27,3.33.82.96.55,1.7,1.33,2.21,2.35.52,1.02.77,2.22.77,3.59ZM219.19,45.7c0,1.29.21,2.27.64,2.94.43.66,1.12,1,2.08,1s1.64-.33,2.05-.99c.42-.66.63-1.64.63-2.94s-.21-2.27-.63-2.92c-.42-.65-1.11-.97-2.07-.97s-1.64.32-2.06.96-.63,1.62-.63,2.92Z"/>
    <path class="cls-1" d="M234.98,52.5c-1.54,0-2.75-.6-3.62-1.79-.88-1.19-1.32-2.85-1.32-4.96s.45-3.82,1.34-5.02c.89-1.2,2.12-1.8,3.69-1.8,1.65,0,2.9.64,3.77,1.92h.12c-.18-.98-.27-1.85-.27-2.61v-4.19h3.58v18.22h-2.74l-.69-1.7h-.15c-.81,1.29-2.05,1.93-3.71,1.93ZM236.23,49.66c.91,0,1.58-.27,2.01-.8.43-.53.66-1.43.7-2.7v-.39c0-1.4-.22-2.41-.65-3.02-.43-.61-1.14-.91-2.11-.91-.8,0-1.42.34-1.86,1.01-.44.68-.66,1.66-.66,2.95s.22,2.25.67,2.9,1.08.96,1.91.96Z"/>
    <path class="cls-1" d="M125.69,64.74c0,1.84-.58,3.25-1.73,4.23-1.15.98-2.79,1.46-4.91,1.46h-1.56v6.09h-3.63v-17.12h5.47c2.08,0,3.65.45,4.74,1.34,1.08.89,1.62,2.23,1.62,4ZM117.49,67.45h1.19c1.12,0,1.95-.22,2.51-.66.55-.44.83-1.08.83-1.93s-.23-1.48-.7-1.89-1.19-.61-2.18-.61h-1.65v5.08Z"/>
    <path class="cls-1" d="M135.59,63.18c.48,0,.89.03,1.21.1l-.27,3.35c-.29-.08-.64-.12-1.05-.12-1.14,0-2.03.29-2.66.88-.64.58-.95,1.4-.95,2.46v6.66h-3.57v-13.09h2.7l.53,2.2h.18c.41-.73.95-1.33,1.64-1.77.69-.45,1.44-.67,2.25-.67Z"/>
    <path class="cls-1" d="M150.71,69.95c0,2.13-.56,3.8-1.69,5s-2.69,1.8-4.69,1.8c-1.26,0-2.36-.27-3.33-.83-.96-.55-1.7-1.34-2.21-2.37-.52-1.03-.77-2.23-.77-3.61,0-2.14.56-3.8,1.67-4.99,1.12-1.19,2.68-1.78,4.71-1.78,1.26,0,2.36.27,3.33.82.96.55,1.7,1.33,2.21,2.35.52,1.02.77,2.22.77,3.59ZM141.66,69.95c0,1.29.21,2.27.64,2.94.43.66,1.12,1,2.08,1s1.64-.33,2.05-.99c.42-.66.63-1.64.63-2.94s-.21-2.27-.63-2.92c-.42-.65-1.11-.97-2.07-.97s-1.64.32-2.06.96-.63,1.62-.63,2.92Z"/>
    <path class="cls-1" d="M164.69,63.43v1.82l-2.05.53c.37.59.56,1.24.56,1.97,0,1.4-.49,2.5-1.47,3.28s-2.34,1.18-4.08,1.18l-.64-.04-.53-.06c-.37.28-.55.59-.55.94,0,.51.66.77,1.97.77h2.22c1.44,0,2.53.31,3.28.93.75.62,1.13,1.52,1.13,2.72,0,1.53-.64,2.72-1.91,3.56-1.28.84-3.11,1.26-5.5,1.26-1.83,0-3.22-.32-4.19-.95-.96-.63-1.45-1.53-1.45-2.67,0-.79.25-1.45.74-1.98.49-.53,1.21-.91,2.17-1.14-.37-.16-.69-.41-.96-.77-.27-.36-.41-.73-.41-1.13,0-.5.14-.91.43-1.25s.71-.66,1.25-.98c-.69-.3-1.23-.77-1.63-1.43-.4-.65-.6-1.43-.6-2.32,0-1.43.46-2.53,1.39-3.31.93-.78,2.26-1.17,3.98-1.17.37,0,.8.03,1.31.1s.83.11.97.15h4.57ZM154.58,78.36c0,.49.24.88.71,1.16.47.28,1.13.42,1.98.42,1.28,0,2.28-.18,3.01-.53.73-.35,1.09-.83,1.09-1.44,0-.49-.21-.83-.64-1.02-.43-.19-1.09-.28-1.99-.28h-1.85c-.66,0-1.2.15-1.64.46-.44.31-.66.72-.66,1.22ZM155.88,67.71c0,.71.16,1.27.49,1.69s.82.62,1.48.62,1.16-.21,1.48-.62.47-.98.47-1.69c0-1.58-.65-2.37-1.94-2.37s-1.97.79-1.97,2.37Z"/>
    <path class="cls-1" d="M173.79,63.18c.48,0,.89.03,1.21.1l-.27,3.35c-.29-.08-.64-.12-1.05-.12-1.14,0-2.03.29-2.66.88-.64.58-.95,1.4-.95,2.46v6.66h-3.57v-13.09h2.7l.53,2.2h.18c.41-.73.95-1.33,1.64-1.77.69-.45,1.44-.67,2.25-.67Z"/>
    <path class="cls-1" d="M185.32,76.51l-.69-1.78h-.09c-.6.76-1.22,1.28-1.86,1.57-.64.29-1.47.44-2.49.44-1.26,0-2.25-.36-2.97-1.08-.72-.72-1.08-1.74-1.08-3.07s.49-2.41,1.46-3.07c.97-.66,2.44-1.02,4.4-1.09l2.27-.07v-.57c0-1.33-.68-1.99-2.04-1.99-1.05,0-2.28.32-3.69.95l-1.18-2.41c1.51-.79,3.18-1.18,5.01-1.18s3.1.38,4.04,1.15c.94.77,1.41,1.93,1.41,3.49v8.72h-2.49ZM184.27,70.45l-1.38.05c-1.04.03-1.81.22-2.32.56-.51.34-.76.87-.76,1.57,0,1.01.58,1.51,1.73,1.51.83,0,1.49-.24,1.98-.72.5-.48.74-1.11.74-1.9v-1.08Z"/>
    <path class="cls-1" d="M202.85,76.51h-3.57v-7.65c0-.94-.16-1.65-.47-2.13-.32-.47-.81-.71-1.49-.71-.91,0-1.58.34-1.99,1.01-.41.67-.62,1.78-.62,3.31v6.16h-3.57v-13.09h2.73l.48,1.67h.2c.35-.6.86-1.07,1.52-1.41.66-.34,1.42-.51,2.28-.51,1.96,0,3.29.64,3.98,1.92h.32c.35-.61.87-1.08,1.55-1.42.68-.34,1.45-.5,2.31-.5,1.48,0,2.6.38,3.37,1.14s1.14,1.98,1.14,3.66v8.54h-3.58v-7.65c0-.94-.16-1.65-.47-2.13-.32-.47-.81-.71-1.49-.71-.87,0-1.53.31-1.96.94s-.65,1.62-.65,2.97v6.57Z"/>
    <path class="cls-1" d="M234.4,59.4v11.08c0,1.26-.28,2.37-.85,3.33-.57.95-1.38,1.68-2.45,2.19-1.07.51-2.33.76-3.79.76-2.2,0-3.91-.56-5.13-1.69-1.22-1.13-1.83-2.67-1.83-4.63v-11.03h3.62v10.48c0,1.32.27,2.29.8,2.9.53.62,1.41.93,2.63.93s2.05-.31,2.58-.93c.53-.62.8-1.59.8-2.92v-10.45h3.62Z"/>
    <path class="cls-1" d="M248.34,71.76c0,1.54-.56,2.76-1.67,3.65-1.11.89-2.66,1.33-4.64,1.33-1.83,0-3.44-.34-4.85-1.03v-3.37c1.16.51,2.13.88,2.93,1.09.8.21,1.53.32,2.19.32.8,0,1.41-.15,1.83-.46.43-.3.64-.76.64-1.36,0-.34-.09-.63-.28-.89s-.46-.51-.83-.76c-.36-.24-1.1-.63-2.22-1.16-1.05-.49-1.83-.96-2.35-1.42s-.94-.98-1.25-1.58c-.31-.6-.47-1.3-.47-2.11,0-1.52.51-2.7,1.54-3.57,1.03-.87,2.44-1.3,4.26-1.3.89,0,1.74.11,2.55.32.81.21,1.65.51,2.54.89l-1.17,2.82c-.91-.37-1.67-.64-2.27-.79-.6-.15-1.18-.22-1.76-.22-.69,0-1.21.16-1.58.48-.37.32-.55.74-.55,1.25,0,.32.07.6.22.84s.38.47.71.69,1.09.62,2.3,1.2c1.6.77,2.7,1.53,3.29,2.3.59.77.89,1.71.89,2.83Z"/>
    <path class="cls-1" d="M261.56,76.51l-1.24-4.07h-6.24l-1.24,4.07h-3.91l6.04-17.19h4.44l6.06,17.19h-3.91ZM259.45,69.4c-1.15-3.69-1.79-5.78-1.94-6.26-.14-.48-.25-.87-.31-1.15-.26,1-1,3.47-2.21,7.41h4.46Z"/>
  </g>
</svg>